<svg id="Layer_1" data-name="Layer 1" xmlns="http://www.w3.org/2000/svg" viewBox="0 0 512 512"><defs><style>.cls-1{fill:#141f38;}</style></defs><title>sim-card-glyph</title><path class="cls-1" d="M111.59,0A59.14,59.14,0,0,0,52.51,59.08V452.92A59.14,59.14,0,0,0,111.59,512H400.41a59.14,59.14,0,0,0,59.08-59.08V122L337.49,0ZM380.72,223.18V393.85a39.43,39.43,0,0,1-39.38,39.38H170.67a39.43,39.43,0,0,1-39.38-39.38V223.18a39.43,39.43,0,0,1,39.38-39.38H341.33A39.43,39.43,0,0,1,380.72,223.18ZM170.67,196.92H288.82V420.1H223.18V262.56H144.41V223.18A26.28,26.28,0,0,1,170.67,196.92Zm-26.26,78.77h65.64v65.64H144.41ZM341.33,420.1H301.95V354.46h65.64v39.38A26.28,26.28,0,0,1,341.33,420.1Zm26.26-157.54H301.95V196.92h39.38a26.28,26.28,0,0,1,26.26,26.26Zm0,78.77H301.95V275.69h65.64ZM144.41,354.46h65.64V420.1H170.67a26.28,26.28,0,0,1-26.26-26.26Z"/></svg>